<svg width="359" height="682" viewBox="0 0 359 682" fill="none" xmlns="http://www.w3.org/2000/svg">
<mask id="mask0_161_22069" style="mask-type:alpha" maskUnits="userSpaceOnUse" x="0" y="0" width="359" height="682">
<rect width="359" height="682" rx="20" fill="white"/>
</mask>
<g mask="url(#mask0_161_22069)">
<rect x="-146" width="608" height="682" rx="20" fill="url(#paint0_linear_161_22069)"/>
<rect x="-146" width="608" height="682" rx="20" fill="url(#paint1_radial_161_22069)" fill-opacity="0.15"/>
<rect x="-146" width="608" height="682" rx="20" fill="url(#paint2_radial_161_22069)" fill-opacity="0.15"/>
</g>
<mask id="mask1_161_22069" style="mask-type:alpha" maskUnits="userSpaceOnUse" x="0" y="0" width="359" height="682">
<rect width="359" height="682" rx="20" fill="white"/>
</mask>
<g mask="url(#mask1_161_22069)">
<g opacity="0.3">
<path opacity="0.7" d="M-193.75 491.25V491.25C-184.146 491.25 -174.935 487.435 -168.143 480.643L-165.966 478.466C-158.464 470.964 -148.29 466.75 -137.681 466.75H168.5" stroke="#4B7497"/>
<path opacity="0.7" d="M189 466.75H374.431C385.04 466.75 395.214 470.964 402.716 478.466L438.284 514.034C445.786 521.536 455.96 525.75 466.569 525.75H551.5" stroke="#4B7497"/>
<path d="M218 465.25L220.5 466.75L218 468.25V465.25Z" fill="#4B7497"/>
<rect x="267" y="461.75" width="32" height="9" rx="4.5" fill="#4B7497"/>
<path d="M271.926 468.75H270.379V464.386H271.939C272.378 464.386 272.756 464.474 273.072 464.648C273.389 464.822 273.633 465.071 273.803 465.396C273.975 465.722 274.061 466.111 274.061 466.564C274.061 467.018 273.975 467.409 273.803 467.736C273.633 468.062 273.388 468.313 273.068 468.488C272.75 468.663 272.369 468.75 271.926 468.75ZM271.302 467.96H271.888C272.161 467.96 272.39 467.911 272.576 467.815C272.763 467.717 272.904 467.565 272.998 467.361C273.093 467.155 273.141 466.889 273.141 466.564C273.141 466.241 273.093 465.978 272.998 465.773C272.904 465.569 272.764 465.418 272.578 465.322C272.392 465.225 272.163 465.177 271.89 465.177H271.302V467.96ZM275.251 468.75H274.262L275.768 464.386H276.957L278.461 468.75H277.473L276.38 465.384H276.346L275.251 468.75ZM275.189 467.035H277.524V467.755H275.189V467.035ZM282.637 464.386V468.75H281.84L279.941 466.004H279.909V468.75H278.987V464.386H279.796L281.68 467.131H281.718V464.386H282.637ZM286.292 465.797C286.262 465.693 286.221 465.602 286.167 465.522C286.113 465.441 286.047 465.373 285.968 465.317C285.892 465.261 285.804 465.217 285.704 465.188C285.606 465.158 285.498 465.143 285.378 465.143C285.155 465.143 284.959 465.198 284.79 465.309C284.623 465.42 284.492 465.581 284.398 465.793C284.304 466.003 284.257 466.26 284.257 466.564C284.257 466.868 284.304 467.126 284.396 467.339C284.488 467.553 284.619 467.715 284.788 467.827C284.957 467.938 285.157 467.994 285.387 467.994C285.596 467.994 285.774 467.957 285.922 467.883C286.071 467.808 286.184 467.702 286.262 467.565C286.342 467.429 286.382 467.268 286.382 467.082L286.569 467.109H285.444V466.415H287.27V466.964C287.27 467.348 287.189 467.678 287.027 467.953C286.865 468.227 286.642 468.439 286.358 468.588C286.074 468.736 285.749 468.81 285.382 468.81C284.973 468.81 284.614 468.719 284.304 468.539C283.995 468.357 283.753 468.099 283.58 467.766C283.408 467.43 283.322 467.033 283.322 466.572C283.322 466.219 283.373 465.903 283.475 465.626C283.579 465.348 283.724 465.112 283.91 464.919C284.096 464.726 284.313 464.579 284.56 464.478C284.807 464.377 285.075 464.327 285.363 464.327C285.61 464.327 285.841 464.363 286.054 464.435C286.267 464.506 286.456 464.607 286.62 464.738C286.787 464.869 286.922 465.024 287.027 465.205C287.132 465.384 287.2 465.581 287.23 465.797H286.292ZM287.963 468.75V464.386H290.904V465.147H288.886V466.187H290.752V466.947H288.886V467.989H290.912V468.75H287.963ZM291.637 468.75V464.386H293.359C293.688 464.386 293.969 464.445 294.202 464.563C294.437 464.68 294.615 464.845 294.737 465.06C294.861 465.273 294.923 465.523 294.923 465.812C294.923 466.102 294.86 466.351 294.735 466.56C294.61 466.767 294.429 466.926 294.192 467.037C293.956 467.148 293.67 467.203 293.335 467.203H292.183V466.462H293.186C293.362 466.462 293.509 466.437 293.625 466.389C293.741 466.341 293.828 466.268 293.885 466.172C293.943 466.075 293.972 465.955 293.972 465.812C293.972 465.667 293.943 465.545 293.885 465.445C293.828 465.346 293.741 465.271 293.623 465.219C293.506 465.167 293.359 465.141 293.182 465.141H292.56V468.75H291.637ZM293.994 466.764L295.078 468.75H294.06L292.999 466.764H293.994Z" fill="white"/>
<circle cx="179" cy="466.75" r="10" stroke="#4B7497"/>
<path fill-rule="evenodd" clip-rule="evenodd" d="M179 464.558L177.446 466.112L176.542 465.208L179 462.75L181.458 465.208L180.554 466.112L179 464.558ZM175.904 465.846L175 466.75L175.904 467.654L176.808 466.75L175.904 465.846ZM177.447 467.388L179 468.942L180.555 467.388L181.459 468.291L181.459 468.292L179 470.75L176.541 468.291L177.447 467.388ZM182.096 465.846L181.192 466.75L182.096 467.654L183 466.75L182.096 465.846Z" fill="#4B7497"/>
<path d="M179.918 466.75H179.918L179.001 465.832L178.084 466.749L178.083 466.75L178.084 466.751L179.001 467.668L179.918 466.751L179.919 466.75L179.918 466.75Z" fill="#4B7497"/>
<path opacity="0.7" d="M53 535.75H-25.7871C-35.2846 535.75 -44.4723 539.129 -51.7062 545.284L-62.7938 554.716C-70.0277 560.871 -79.2154 564.25 -88.7129 564.25H-194M53 528.5H-0.22369C-10.5104 528.5 -20.4017 524.537 -27.8427 517.434L-59.6573 487.066C-67.0982 479.963 -76.9896 476 -87.2763 476H-193.5" stroke="#4B7497"/>
<path d="M17 534.25L19.5 535.75L17 537.25V534.25Z" fill="#4B7497"/>
<path d="M31.5 527L34 528.5L31.5 530V527Z" fill="#4B7497"/>
<path opacity="0.7" d="M340.25 83.5H370.681C381.29 83.5 391.464 79.2857 398.966 71.7843L431.75 39" stroke="#4B7497"/>
<path d="M324.25 75.9433C322.538 74.5709 320.365 73.75 318 73.75C312.477 73.75 308 78.2272 308 83.75C308 89.2728 312.477 93.75 318 93.75C320.365 93.75 322.538 92.9291 324.25 91.5567" stroke="#4B7497"/>
<circle cx="330" cy="83.75" r="10" stroke="#4B7497"/>
<path d="M334 82.75V82.75C334.552 82.75 335 83.1977 335 83.75V83.75C335 84.3023 334.552 84.75 334 84.75V84.75M334 82.75H333C332.448 82.75 332 83.1977 332 83.75V83.75C332 84.3023 332.448 84.75 333 84.75H334M334 82.75V82.25C334 81.1454 333.105 80.25 332 80.25H328C326.895 80.25 326 81.1454 326 82.25V85.25C326 86.3546 326.895 87.25 328 87.25H332C333.105 87.25 334 86.3546 334 85.25V84.75" stroke="#4B7497"/>
<path d="M319.303 83.9224C319.142 83.7121 318.9 83.5676 318.575 83.4891C318.988 83.276 319.17 82.9142 319.12 82.4037C319.103 82.2186 319.053 82.0582 318.968 81.9222C318.884 81.7862 318.769 81.6768 318.625 81.5941C318.481 81.5113 318.324 81.4482 318.155 81.4048C317.986 81.3613 317.792 81.3297 317.573 81.3101L317.573 80.25H316.933L316.933 81.2807C316.822 81.2807 316.653 81.2835 316.425 81.2891L316.425 80.25H315.785L315.785 81.3101C315.693 81.3129 315.559 81.3144 315.382 81.3144L314.5 81.3101L314.5 82H314.962C315.172 82 315.296 82.0954 315.332 82.2861L315.332 83.4935C315.359 83.4935 315.382 83.4949 315.398 83.4977H315.332L315.332 85.1888C315.31 85.3318 315.229 85.4033 315.09 85.4033H314.629L314.5 86.1732H315.332C315.384 86.1732 315.461 86.1739 315.56 86.1752C315.66 86.1766 315.735 86.1773 315.785 86.1773L315.785 87.25H316.425L316.425 86.1899C316.542 86.1928 316.711 86.1941 316.933 86.1941L316.933 87.25H317.573L317.573 86.1773C317.801 86.1661 318.002 86.1452 318.178 86.1142C318.354 86.0833 318.523 86.035 318.683 85.969C318.844 85.9031 318.979 85.8211 319.087 85.7229C319.195 85.6248 319.284 85.5 319.355 85.3485C319.426 85.197 319.471 85.0217 319.49 84.8226C319.526 84.4328 319.464 84.1327 319.303 83.9224ZM316.438 82.0462C316.457 82.0462 316.512 82.0455 316.602 82.0441C316.692 82.0426 316.767 82.0412 316.827 82.0398C316.886 82.0384 316.967 82.0419 317.068 82.0504C317.169 82.0588 317.254 82.07 317.324 82.084C317.393 82.098 317.469 82.1212 317.552 82.1534C317.636 82.1856 317.702 82.2249 317.752 82.2712C317.802 82.3175 317.844 82.3764 317.879 82.4479C317.913 82.5194 317.931 82.6014 317.931 82.694C317.931 82.7725 317.918 82.844 317.893 82.9086C317.868 82.9731 317.831 83.0271 317.781 83.0705C317.731 83.114 317.68 83.1519 317.627 83.1841C317.575 83.2164 317.507 83.2423 317.425 83.2619C317.344 83.2816 317.272 83.297 317.211 83.3082C317.15 83.3194 317.074 83.3272 316.983 83.3313C316.891 83.3355 316.822 83.3384 316.775 83.3398C316.728 83.3412 316.663 83.3412 316.581 83.3398C316.5 83.3384 316.452 83.3376 316.438 83.3376L316.438 82.0462H316.438L316.438 82.0462ZM318.187 84.911C318.16 84.9755 318.126 85.0316 318.085 85.0793C318.043 85.1269 317.988 85.169 317.92 85.2054C317.852 85.242 317.787 85.2714 317.723 85.2938C317.659 85.3163 317.582 85.3358 317.492 85.3527C317.402 85.3696 317.323 85.3814 317.255 85.3885C317.187 85.3955 317.106 85.4011 317.012 85.4053C316.917 85.4095 316.844 85.4116 316.791 85.4116C316.739 85.4116 316.672 85.4108 316.592 85.4095C316.511 85.4081 316.46 85.4074 316.438 85.4074L316.438 83.9855C316.46 83.9855 316.526 83.9841 316.635 83.9813C316.745 83.9784 316.834 83.9771 316.904 83.9771C316.973 83.9771 317.069 83.9813 317.191 83.9897C317.312 83.9981 317.415 84.0107 317.498 84.0275C317.581 84.0443 317.672 84.0702 317.771 84.1053C317.869 84.1404 317.949 84.1831 318.01 84.2336C318.071 84.2842 318.122 84.3486 318.164 84.4271C318.205 84.5056 318.226 84.5954 318.226 84.6964C318.226 84.775 318.213 84.8464 318.187 84.911Z" fill="#4B7497"/>
<path d="M300 82L302.5 83.5L300 85V82Z" fill="#4B7497"/>
<path d="M297.5 82L300 83.5L297.5 85V82Z" fill="#4B7497"/>
<path d="M295 82L297.5 83.5L295 85V82Z" fill="#4B7497"/>
<path opacity="0.7" d="M-64 84L34.5 84" stroke="#4B7497"/>
<circle cx="44.5" cy="84" r="10" stroke="#4B7497"/>
<path d="M46.803 84.1724C46.6423 83.9621 46.3997 83.8176 46.0753 83.7391C46.4884 83.526 46.6699 83.1642 46.6201 82.6537C46.6034 82.4686 46.5529 82.3082 46.4683 82.1722C46.3836 82.0362 46.2694 81.9268 46.1251 81.8441C45.981 81.7613 45.8242 81.6982 45.6552 81.6548C45.4861 81.6113 45.292 81.5797 45.073 81.5601L45.073 80.5H44.4327L44.4327 81.5307C44.3218 81.5307 44.1527 81.5335 43.9254 81.5391L43.9254 80.5H43.2849L43.2849 81.5601C43.1934 81.5629 43.059 81.5644 42.8816 81.5644L42 81.5601L42 82.25H42.4616C42.6723 82.25 42.7956 82.3454 42.8317 82.5361L42.8317 83.7435C42.8594 83.7435 42.8816 83.7449 42.8982 83.7477H42.8317L42.8317 85.4388C42.8095 85.5818 42.7291 85.6533 42.5905 85.6533H42.129L42 86.4232H42.8317C42.8844 86.4232 42.9606 86.4239 43.0604 86.4252C43.1602 86.4266 43.2351 86.4273 43.285 86.4273L43.285 87.5H43.9255L43.9255 86.4399C44.0419 86.4428 44.211 86.4441 44.4328 86.4441L44.4328 87.5H45.0731L45.0731 86.4273C45.3005 86.4161 45.5022 86.3952 45.6782 86.3642C45.8542 86.3333 46.0227 86.285 46.1834 86.219C46.3442 86.1531 46.4786 86.0711 46.5867 85.9729C46.6949 85.8748 46.7842 85.75 46.855 85.5985C46.9256 85.447 46.9707 85.2717 46.99 85.0726C47.0262 84.6828 46.9638 84.3827 46.803 84.1724ZM43.9378 82.2962C43.9572 82.2962 44.012 82.2955 44.1021 82.2941C44.1922 82.2926 44.2671 82.2912 44.3267 82.2898C44.3863 82.2884 44.4667 82.2919 44.5679 82.3004C44.6691 82.3088 44.7543 82.32 44.8236 82.334C44.8929 82.348 44.9692 82.3712 45.0523 82.4034C45.1355 82.4356 45.202 82.4749 45.2519 82.5212C45.3018 82.5675 45.3441 82.6264 45.3787 82.6979C45.4134 82.7694 45.4307 82.8514 45.4307 82.944C45.4307 83.0225 45.4182 83.094 45.3933 83.1586C45.3684 83.2231 45.3309 83.2771 45.2811 83.3205C45.2312 83.364 45.1798 83.4019 45.1272 83.4341C45.0745 83.4664 45.0072 83.4923 44.9255 83.5119C44.8437 83.5316 44.7724 83.547 44.7114 83.5582C44.6504 83.5694 44.5742 83.5772 44.4827 83.5813C44.3912 83.5855 44.3218 83.5884 44.2747 83.5898C44.2276 83.5912 44.1632 83.5912 44.0813 83.5898C43.9995 83.5884 43.9518 83.5876 43.9379 83.5876L43.9379 82.2962H43.9378L43.9378 82.2962ZM45.6865 85.161C45.6601 85.2255 45.6262 85.2816 45.5846 85.3293C45.543 85.3769 45.4882 85.419 45.4203 85.4554C45.3525 85.492 45.2866 85.5214 45.2229 85.5438C45.1591 85.5663 45.0821 85.5858 44.9921 85.6027C44.9019 85.6196 44.8229 85.6314 44.7549 85.6385C44.687 85.6455 44.606 85.6511 44.5117 85.6553C44.4175 85.6595 44.344 85.6616 44.2913 85.6616C44.2386 85.6616 44.1721 85.6608 44.0917 85.6595C44.0112 85.6581 43.96 85.6574 43.9378 85.6574L43.9378 84.2355C43.9599 84.2355 44.0258 84.2341 44.1353 84.2313C44.2449 84.2284 44.3342 84.2271 44.4035 84.2271C44.4728 84.2271 44.5685 84.2313 44.6905 84.2397C44.8125 84.2481 44.915 84.2607 44.9983 84.2775C45.0814 84.2943 45.1721 84.3202 45.2706 84.3553C45.369 84.3904 45.4488 84.4331 45.5098 84.4836C45.5708 84.5342 45.622 84.5986 45.6636 84.6771C45.7053 84.7556 45.7261 84.8454 45.7261 84.9464C45.726 85.025 45.7129 85.0964 45.6865 85.161Z" fill="#4B7497"/>
<path d="M67.5 82.5L70 84L67.5 85.5V82.5Z" fill="#4B7497"/>
<path d="M65 82.5L67.5 84L65 85.5V82.5Z" fill="#4B7497"/>
<path d="M62.5 82.5L65 84L62.5 85.5V82.5Z" fill="#4B7497"/>
<path opacity="0.7" d="M342.75 393.5H402" stroke="#4B7497"/>
<circle cx="332.5" cy="393" r="10" stroke="#4B7497"/>
<path d="M332.483 388V391.529L335.466 392.862L332.483 388Z" fill="#4B7497" fill-opacity="0.602"/>
<path d="M332.483 388L329.5 392.862L332.483 391.529V388Z" fill="#4B7497"/>
<path d="M332.483 395.149V397.547L335.468 393.417L332.483 395.149Z" fill="#4B7497" fill-opacity="0.602"/>
<path d="M332.483 397.547V395.149L329.5 393.417L332.483 397.547Z" fill="#4B7497"/>
<path d="M332.483 394.594L335.466 392.862L332.483 391.53V394.594Z" fill="#4B7497"/>
<path d="M329.5 392.862L332.483 394.594V391.53L329.5 392.862Z" fill="#4B7497" fill-opacity="0.602"/>
<path opacity="0.7" d="M-143.5 227.5H-104.778C-94.3414 227.5 -84.3184 231.579 -76.8476 238.866L-39.1524 275.634C-31.6816 282.921 -21.6586 287 -11.2224 287H44.5M-143.5 304H-98.5256C-91.9437 304 -85.4634 302.376 -79.6595 299.271L-75.8404 297.229C-70.0366 294.124 -63.5563 292.5 -56.9744 292.5H44.5" stroke="#4B7497"/>
<circle cx="54" cy="289" r="10" stroke="#4B7497"/>
<path fill-rule="evenodd" clip-rule="evenodd" d="M53.9997 286.808L52.4461 288.362L51.5421 287.458L53.9997 285L56.4581 287.458L55.5541 288.362L53.9997 286.808ZM50.904 288.096L50 289L50.904 289.904L51.808 289L50.904 288.096ZM52.4467 289.638L54.0004 291.192L55.5547 289.638L56.4592 290.541L56.4588 290.542L54.0004 293L51.5415 290.541L52.4467 289.638ZM57.096 288.096L56.192 289L57.096 289.904L58 289L57.096 288.096Z" fill="#4B7497"/>
<path d="M54.9177 289H54.9181L54.0009 288.082L53.0844 288.999L53.0831 289L53.0844 289.001L54.0009 289.918L54.9182 289.001L54.9186 289L54.9177 289Z" fill="#4B7497"/>
<path d="M10 291L12.5 292.5L10 294V291Z" fill="#4B7497"/>
<path d="M25 285.5L27.5 287L25 288.5V285.5Z" fill="#4B7497"/>
<path opacity="0.7" d="M279.5 293.75H431.5M280 288.25H311.431C322.04 288.25 332.214 284.036 339.716 276.534L382.534 233.716C390.036 226.214 400.21 222 410.819 222H431.5" stroke="#4B7497"/>
<circle cx="270" cy="291" r="10" stroke="#4B7497"/>
<path d="M274 290V290C274.552 290 275 290.448 275 291V291C275 291.552 274.552 292 274 292V292M274 290H273C272.448 290 272 290.448 272 291V291C272 291.552 272.448 292 273 292H274M274 290V289.5C274 288.395 273.105 287.5 272 287.5H268C266.895 287.5 266 288.395 266 289.5V292.5C266 293.605 266.895 294.5 268 294.5H272C273.105 294.5 274 293.605 274 292.5V292" stroke="#4B7497"/>
<path d="M356.5 292.25L359 293.75L356.5 295.25V292.25Z" fill="#4B7497"/>
<path d="M285.5 286.75L288 288.25L285.5 289.75V286.75Z" fill="#4B7497"/>
</g>
</g>
<defs>
<linearGradient id="paint0_linear_161_22069" x1="158" y1="0" x2="158" y2="682" gradientUnits="userSpaceOnUse">
<stop stop-color="#DCF1FE"/>
<stop offset="1" stop-color="white" stop-opacity="0"/>
</linearGradient>
<radialGradient id="paint1_radial_161_22069" cx="0" cy="0" r="1" gradientUnits="userSpaceOnUse" gradientTransform="translate(449.775 -174.716) rotate(98.7239) scale(552.123 511.921)">
<stop stop-color="#6139FF"/>
<stop offset="1" stop-color="#F364FF" stop-opacity="0"/>
</radialGradient>
<radialGradient id="paint2_radial_161_22069" cx="0" cy="0" r="1" gradientUnits="userSpaceOnUse" gradientTransform="translate(-146 290.407) rotate(38.9501) scale(201.738 294.939)">
<stop stop-color="#0057FF"/>
<stop offset="1" stop-color="#B0E3FF" stop-opacity="0"/>
</radialGradient>
</defs>
</svg>
