<svg width="2541" height="1011" viewBox="0 0 2541 1011" fill="none" xmlns="http://www.w3.org/2000/svg">
<rect x="1" width="2540" height="1011" rx="40" fill="url(#paint0_linear_252_613)"/>
<rect x="1" width="2540" height="1011" rx="40" fill="url(#paint1_radial_252_613)" fill-opacity="0.15"/>
<rect x="1" width="2540" height="1011" rx="40" fill="url(#paint2_radial_252_613)" fill-opacity="0.15"/>
<g opacity="0.3">
<path opacity="0.7" d="M0.5 592.5H538.931C549.54 592.5 559.714 588.286 567.216 580.784L592.784 555.216C600.286 547.714 610.46 543.5 621.069 543.5H1250" stroke="#4B7497"/>
<path d="M840 540.5L845 543.5L840 546.5V540.5Z" fill="#4B7497"/>
<path opacity="0.7" d="M1291 543.5H1678.43C1689.04 543.5 1699.21 547.714 1706.72 555.216L1801.28 649.784C1808.79 657.286 1818.96 661.5 1829.57 661.5H2541" stroke="#4B7497"/>
<path d="M1349 540.5L1354 543.5L1349 546.5V540.5Z" fill="#4B7497"/>
<rect x="1447" y="535.5" width="46" height="14" rx="7" fill="#4B7497"/>
<path d="M1455.57 545.5H1453.51V539.682H1455.59C1456.17 539.682 1456.67 539.798 1457.1 540.031C1457.52 540.262 1457.84 540.595 1458.07 541.028C1458.3 541.462 1458.41 541.981 1458.41 542.585C1458.41 543.191 1458.3 543.712 1458.07 544.148C1457.84 544.583 1457.52 544.918 1457.09 545.151C1456.67 545.384 1456.16 545.5 1455.57 545.5ZM1454.74 544.446H1455.52C1455.88 544.446 1456.19 544.382 1456.43 544.253C1456.68 544.122 1456.87 543.92 1457 543.648C1457.12 543.373 1457.19 543.019 1457.19 542.585C1457.19 542.155 1457.12 541.804 1457 541.531C1456.87 541.259 1456.69 541.058 1456.44 540.929C1456.19 540.8 1455.88 540.736 1455.52 540.736H1454.74V544.446ZM1460 545.5H1458.68L1460.69 539.682H1462.28L1464.28 545.5H1462.96L1461.51 541.011H1461.46L1460 545.5ZM1459.92 543.213H1463.03V544.173H1459.92V543.213ZM1469.85 539.682V545.5H1468.79L1466.25 541.838H1466.21V545.5H1464.98V539.682H1466.06L1468.57 543.341H1468.62V539.682H1469.85ZM1474.72 541.562C1474.68 541.424 1474.63 541.302 1474.56 541.196C1474.48 541.088 1474.4 540.997 1474.29 540.923C1474.19 540.848 1474.07 540.79 1473.94 540.75C1473.81 540.71 1473.66 540.69 1473.5 540.69C1473.21 540.69 1472.95 540.764 1472.72 540.912C1472.5 541.06 1472.32 541.275 1472.2 541.557C1472.07 541.837 1472.01 542.18 1472.01 542.585C1472.01 542.991 1472.07 543.335 1472.19 543.619C1472.32 543.903 1472.49 544.12 1472.72 544.27C1472.94 544.418 1473.21 544.491 1473.52 544.491C1473.79 544.491 1474.03 544.442 1474.23 544.344C1474.43 544.243 1474.58 544.102 1474.68 543.92C1474.79 543.739 1474.84 543.524 1474.84 543.276L1475.09 543.312H1473.59V542.386H1476.03V543.119C1476.03 543.631 1475.92 544.07 1475.7 544.438C1475.49 544.803 1475.19 545.085 1474.81 545.284C1474.43 545.481 1474 545.58 1473.51 545.58C1472.96 545.58 1472.49 545.459 1472.07 545.219C1471.66 544.976 1471.34 544.633 1471.11 544.188C1470.88 543.741 1470.76 543.21 1470.76 542.597C1470.76 542.125 1470.83 541.705 1470.97 541.335C1471.11 540.964 1471.3 540.65 1471.55 540.392C1471.79 540.134 1472.08 539.938 1472.41 539.804C1472.74 539.67 1473.1 539.602 1473.48 539.602C1473.81 539.602 1474.12 539.651 1474.4 539.747C1474.69 539.842 1474.94 539.976 1475.16 540.151C1475.38 540.325 1475.56 540.532 1475.7 540.773C1475.84 541.011 1475.93 541.275 1475.97 541.562H1474.72ZM1476.95 545.5V539.682H1480.87V540.696H1478.18V542.082H1480.67V543.097H1478.18V544.486H1480.88V545.5H1476.95ZM1481.85 545.5V539.682H1484.14C1484.58 539.682 1484.96 539.76 1485.27 539.918C1485.58 540.073 1485.82 540.294 1485.98 540.58C1486.15 540.864 1486.23 541.198 1486.23 541.582C1486.23 541.969 1486.15 542.301 1485.98 542.58C1485.81 542.856 1485.57 543.068 1485.26 543.216C1484.94 543.364 1484.56 543.438 1484.11 543.438H1482.58V542.449H1483.91C1484.15 542.449 1484.34 542.417 1484.5 542.352C1484.66 542.288 1484.77 542.191 1484.85 542.062C1484.92 541.934 1484.96 541.774 1484.96 541.582C1484.96 541.389 1484.92 541.226 1484.85 541.094C1484.77 540.961 1484.65 540.861 1484.5 540.793C1484.34 540.723 1484.15 540.688 1483.91 540.688H1483.08V545.5H1481.85ZM1484.99 542.852L1486.44 545.5H1485.08L1483.66 542.852H1484.99Z" fill="white"/>
<path d="M1897 658.5L1902 661.5L1897 664.5V658.5Z" fill="#4B7497"/>
<path d="M1878 658.5L1883 661.5L1878 664.5V658.5Z" fill="#4B7497"/>
<circle cx="1271" cy="543.5" r="20" stroke="#4B7497"/>
<path fill-rule="evenodd" clip-rule="evenodd" d="M1271 539.116L1267.89 542.223L1266.08 540.415L1271 535.5L1275.92 540.417L1274.11 542.225L1271 539.116ZM1264.81 541.691L1263 543.5L1264.81 545.307L1266.62 543.499L1264.81 541.691ZM1267.89 544.777L1271 547.884L1274.11 544.775L1275.92 546.582L1275.92 546.583L1271 551.5L1266.08 546.582L1267.89 544.777ZM1277.19 541.693L1275.38 543.501L1277.19 545.309L1279 543.501L1277.19 541.693Z" fill="#4B7497"/>
<path d="M1272.84 543.499H1272.84L1271 541.665L1269.17 543.498L1269.17 543.5L1269.17 543.503L1271 545.336L1272.84 543.501L1272.84 543.5L1272.84 543.499Z" fill="#4B7497"/>
<path opacity="0.7" d="M1019 647.5H846.713C837.215 647.5 828.028 650.879 820.794 657.034L776.206 694.966C768.972 701.121 759.785 704.5 750.287 704.5H0M1019 633H896.526C886.24 633 876.348 629.037 868.907 621.934L782.093 539.066C774.652 531.963 764.76 528 754.474 528H1" stroke="#4B7497"/>
<path d="M947 644.5L952 647.5L947 650.5V644.5Z" fill="#4B7497"/>
<path d="M976 630L981 633L976 636V630Z" fill="#4B7497"/>
<path d="M659 701.5L664 704.5L659 707.5V701.5Z" fill="#4B7497"/>
<path opacity="0.7" d="M1833.5 203H1910.93C1921.54 203 1931.71 198.786 1939.22 191.284L2129.5 1" stroke="#4B7497"/>
<path d="M1801.5 187.887C1798.08 185.142 1793.73 183.5 1789 183.5C1777.95 183.5 1769 192.454 1769 203.5C1769 214.546 1777.95 223.5 1789 223.5C1793.73 223.5 1798.08 221.858 1801.5 219.113" stroke="#4B7497"/>
<circle cx="1813" cy="203.5" r="20" stroke="#4B7497"/>
<path d="M1821 201.5V201.5C1822.1 201.5 1823 202.395 1823 203.5V203.5C1823 204.605 1822.1 205.5 1821 205.5V205.5M1821 201.5H1819C1817.9 201.5 1817 202.395 1817 203.5V203.5C1817 204.605 1817.9 205.5 1819 205.5H1821M1821 201.5V198.5C1821 197.395 1820.1 196.5 1819 196.5H1807C1805.9 196.5 1805 197.395 1805 198.5V208.5C1805 209.605 1805.9 210.5 1807 210.5H1819C1820.1 210.5 1821 209.605 1821 208.5V205.5" stroke="#4B7497"/>
<path d="M1791.61 203.845C1791.28 203.424 1790.8 203.135 1790.15 202.978C1790.98 202.552 1791.34 201.828 1791.24 200.807C1791.21 200.437 1791.11 200.116 1790.94 199.844C1790.77 199.572 1790.54 199.354 1790.25 199.188C1789.96 199.023 1789.65 198.896 1789.31 198.81C1788.97 198.723 1788.58 198.659 1788.15 198.62L1788.15 196.5H1786.87L1786.87 198.561C1786.64 198.561 1786.31 198.567 1785.85 198.578L1785.85 196.5H1784.57L1784.57 198.62C1784.39 198.626 1784.12 198.629 1783.76 198.629L1782 198.62L1782 200H1782.92C1783.34 200 1783.59 200.191 1783.66 200.572L1783.66 202.987C1783.72 202.987 1783.76 202.99 1783.8 202.995H1783.66L1783.66 206.378C1783.62 206.664 1783.46 206.807 1783.18 206.807H1782.26L1782 208.346H1783.66C1783.77 208.346 1783.92 208.348 1784.12 208.35C1784.32 208.353 1784.47 208.355 1784.57 208.355L1784.57 210.5H1785.85L1785.85 208.38C1786.08 208.386 1786.42 208.388 1786.87 208.388L1786.87 210.5H1788.15L1788.15 208.355C1788.6 208.332 1789 208.29 1789.36 208.228C1789.71 208.167 1790.05 208.07 1790.37 207.938C1790.69 207.806 1790.96 207.642 1791.17 207.446C1791.39 207.25 1791.57 207 1791.71 206.697C1791.85 206.394 1791.94 206.043 1791.98 205.645C1792.05 204.866 1791.93 204.265 1791.61 203.845ZM1785.88 200.092C1785.91 200.092 1786.02 200.091 1786.2 200.088C1786.38 200.085 1786.53 200.082 1786.65 200.08C1786.77 200.077 1786.93 200.084 1787.14 200.101C1787.34 200.118 1787.51 200.14 1787.65 200.168C1787.79 200.196 1787.94 200.242 1788.1 200.307C1788.27 200.371 1788.4 200.45 1788.5 200.542C1788.6 200.635 1788.69 200.753 1788.76 200.896C1788.83 201.039 1788.86 201.203 1788.86 201.388C1788.86 201.545 1788.84 201.688 1788.79 201.817C1788.74 201.946 1788.66 202.054 1788.56 202.141C1788.46 202.228 1788.36 202.304 1788.25 202.368C1788.15 202.433 1788.01 202.485 1787.85 202.524C1787.69 202.563 1787.54 202.594 1787.42 202.616C1787.3 202.639 1787.15 202.654 1786.97 202.663C1786.78 202.671 1786.64 202.677 1786.55 202.68C1786.46 202.682 1786.33 202.682 1786.16 202.68C1786 202.677 1785.9 202.675 1785.88 202.675L1785.88 200.092H1785.88L1785.88 200.092ZM1789.37 205.822C1789.32 205.951 1789.25 206.063 1789.17 206.159C1789.09 206.254 1788.98 206.338 1788.84 206.411C1788.7 206.484 1788.57 206.543 1788.45 206.588C1788.32 206.633 1788.16 206.672 1787.98 206.705C1787.8 206.739 1787.65 206.763 1787.51 206.777C1787.37 206.791 1787.21 206.802 1787.02 206.811C1786.83 206.819 1786.69 206.823 1786.58 206.823C1786.48 206.823 1786.34 206.822 1786.18 206.819C1786.02 206.816 1785.92 206.815 1785.88 206.815L1785.88 203.971C1785.92 203.971 1786.05 203.968 1786.27 203.963C1786.49 203.957 1786.67 203.954 1786.81 203.954C1786.95 203.954 1787.14 203.963 1787.38 203.979C1787.62 203.996 1787.83 204.021 1788 204.055C1788.16 204.089 1788.34 204.14 1788.54 204.211C1788.74 204.281 1788.9 204.366 1789.02 204.467C1789.14 204.568 1789.24 204.697 1789.33 204.854C1789.41 205.011 1789.45 205.191 1789.45 205.393C1789.45 205.55 1789.43 205.693 1789.37 205.822Z" fill="#4B7497"/>
<path d="M1898 200L1903 203L1898 206V200Z" fill="#4B7497"/>
<path d="M1753 200L1758 203L1753 206V200Z" fill="#4B7497"/>
<path d="M1748 200L1753 203L1748 206V200Z" fill="#4B7497"/>
<path d="M1743 200L1748 203L1743 206V200Z" fill="#4B7497"/>
<path opacity="0.7" d="M0 245L722 245" stroke="#4B7497"/>
<circle cx="742" cy="245" r="20" stroke="#4B7497"/>
<path d="M746.606 245.345C746.285 244.924 745.799 244.635 745.151 244.478C745.977 244.052 746.34 243.328 746.24 242.307C746.207 241.937 746.106 241.616 745.937 241.344C745.767 241.072 745.539 240.854 745.25 240.688C744.962 240.523 744.648 240.396 744.31 240.31C743.972 240.223 743.584 240.159 743.146 240.12L743.146 238H741.865L741.865 240.061C741.644 240.061 741.305 240.067 740.851 240.078L740.851 238H739.57L739.57 240.12C739.387 240.126 739.118 240.129 738.763 240.129L737 240.12L737 241.5H737.923C738.345 241.5 738.591 241.691 738.663 242.072L738.663 244.487C738.719 244.487 738.763 244.49 738.796 244.495H738.663L738.663 247.878C738.619 248.164 738.458 248.307 738.181 248.307H737.258L737 249.846H738.663C738.769 249.846 738.921 249.848 739.121 249.85C739.32 249.853 739.47 249.855 739.57 249.855L739.57 252H740.851L740.851 249.88C741.084 249.886 741.422 249.888 741.866 249.888L741.866 252H743.146L743.146 249.855C743.601 249.832 744.004 249.79 744.356 249.728C744.708 249.667 745.045 249.57 745.367 249.438C745.688 249.306 745.957 249.142 746.173 248.946C746.39 248.75 746.568 248.5 746.71 248.197C746.851 247.894 746.941 247.543 746.98 247.145C747.052 246.366 746.928 245.765 746.606 245.345ZM740.876 241.592C740.914 241.592 741.024 241.591 741.204 241.588C741.384 241.585 741.534 241.582 741.653 241.58C741.773 241.577 741.933 241.584 742.136 241.601C742.338 241.618 742.509 241.64 742.647 241.668C742.786 241.696 742.938 241.742 743.105 241.807C743.271 241.871 743.404 241.95 743.504 242.042C743.604 242.135 743.688 242.253 743.757 242.396C743.827 242.539 743.861 242.703 743.861 242.888C743.861 243.045 743.836 243.188 743.787 243.317C743.737 243.446 743.662 243.554 743.562 243.641C743.462 243.728 743.36 243.804 743.254 243.868C743.149 243.933 743.014 243.985 742.851 244.024C742.687 244.063 742.545 244.094 742.423 244.116C742.301 244.139 742.148 244.154 741.965 244.163C741.782 244.171 741.644 244.177 741.549 244.18C741.455 244.182 741.326 244.182 741.163 244.18C740.999 244.177 740.904 244.175 740.876 244.175L740.876 241.592H740.876L740.876 241.592ZM744.373 247.322C744.32 247.451 744.252 247.563 744.169 247.659C744.086 247.754 743.976 247.838 743.841 247.911C743.705 247.984 743.573 248.043 743.446 248.088C743.318 248.133 743.164 248.172 742.984 248.205C742.804 248.239 742.646 248.263 742.51 248.277C742.374 248.291 742.212 248.302 742.023 248.311C741.835 248.319 741.688 248.323 741.583 248.323C741.477 248.323 741.344 248.322 741.183 248.319C741.022 248.316 740.92 248.315 740.876 248.315L740.876 245.471C740.92 245.471 741.052 245.468 741.271 245.463C741.49 245.457 741.668 245.454 741.807 245.454C741.946 245.454 742.137 245.463 742.381 245.479C742.625 245.496 742.83 245.521 742.997 245.555C743.163 245.589 743.344 245.64 743.541 245.711C743.738 245.781 743.898 245.866 744.02 245.967C744.142 246.068 744.244 246.197 744.327 246.354C744.411 246.511 744.452 246.691 744.452 246.893C744.452 247.05 744.426 247.193 744.373 247.322Z" fill="#4B7497"/>
<path d="M788 242L793 245L788 248V242Z" fill="#4B7497"/>
<path d="M783 242L788 245L783 248V242Z" fill="#4B7497"/>
<path d="M778 242L783 245L778 248V242Z" fill="#4B7497"/>
<path d="M601 242L606 245L601 248V242Z" fill="#4B7497"/>
<path opacity="0.7" d="M1898.5 543H2541" stroke="#4B7497"/>
<circle cx="1878" cy="542" r="20" stroke="#4B7497"/>
<path d="M1877.97 532V539.059L1883.93 541.725L1877.97 532Z" fill="#4B7497" fill-opacity="0.602"/>
<path d="M1877.97 532L1872 541.725L1877.97 539.059V532Z" fill="#4B7497"/>
<path d="M1877.97 546.298V551.095L1883.94 542.835L1877.97 546.298Z" fill="#4B7497" fill-opacity="0.602"/>
<path d="M1877.97 551.095V546.297L1872 542.835L1877.97 551.095Z" fill="#4B7497"/>
<path d="M1877.97 545.188L1883.93 541.724L1877.97 539.06V545.188Z" fill="#4B7497"/>
<path d="M1872 541.724L1877.97 545.188V539.06L1872 541.724Z" fill="#4B7497" fill-opacity="0.602"/>
<path d="M1987 540L1992 543L1987 546V540Z" fill="#4B7497"/>
<path opacity="0.7" d="M1 305.5H619.722C630.159 305.5 640.182 309.579 647.652 316.866L746.348 413.134C753.818 420.421 763.841 424.5 774.278 424.5H902M1 458.5H625.974C632.556 458.5 639.037 456.876 644.84 453.771L670.16 440.229C675.963 437.124 682.444 435.5 689.026 435.5H902" stroke="#4B7497"/>
<circle cx="921" cy="428.5" r="20" stroke="#4B7497"/>
<path fill-rule="evenodd" clip-rule="evenodd" d="M920.999 424.116L917.892 427.223L916.084 425.415L920.999 420.5L925.916 425.417L924.108 427.225L920.999 424.116ZM914.808 426.691L913 428.5L914.808 430.307L916.616 428.499L914.808 426.691ZM917.893 429.777L921.001 432.884L924.109 429.775L925.918 431.582L925.918 431.583L921.001 436.5L916.083 431.582L917.893 429.777ZM927.192 426.693L925.384 428.501L927.192 430.309L929 428.501L927.192 426.693Z" fill="#4B7497"/>
<path d="M922.835 428.499H922.836L921.002 426.665L919.169 428.498L919.166 428.5L919.169 428.503L921.002 430.336L922.836 428.501L922.837 428.5L922.835 428.499Z" fill="#4B7497"/>
<path d="M833 432.5L838 435.5L833 438.5V432.5Z" fill="#4B7497"/>
<path d="M863 421.5L868 424.5L863 427.5V421.5Z" fill="#4B7497"/>
<path d="M606 302.5L611 305.5L606 308.5V302.5Z" fill="#4B7497"/>
<rect x="547" y="298.5" width="37" height="14" rx="7" fill="#4B7497"/>
<path d="M556.662 304.355C556.639 304.126 556.542 303.948 556.369 303.821C556.197 303.694 555.963 303.631 555.668 303.631C555.467 303.631 555.297 303.659 555.159 303.716C555.021 303.771 554.915 303.848 554.841 303.946C554.769 304.045 554.733 304.156 554.733 304.281C554.729 304.385 554.751 304.476 554.798 304.554C554.848 304.632 554.915 304.699 555 304.756C555.085 304.811 555.184 304.859 555.295 304.901C555.407 304.94 555.527 304.974 555.653 305.003L556.176 305.128C556.43 305.185 556.663 305.26 556.875 305.355C557.087 305.45 557.271 305.566 557.426 305.705C557.581 305.843 557.702 306.006 557.787 306.193C557.874 306.381 557.919 306.596 557.92 306.838C557.919 307.194 557.828 307.503 557.648 307.764C557.47 308.024 557.212 308.225 556.875 308.369C556.54 308.511 556.135 308.582 555.662 308.582C555.192 308.582 554.783 308.51 554.435 308.366C554.088 308.223 553.817 308.009 553.622 307.727C553.429 307.443 553.328 307.092 553.318 306.673H554.509C554.522 306.868 554.578 307.031 554.676 307.162C554.777 307.291 554.91 307.388 555.077 307.455C555.245 307.519 555.436 307.551 555.648 307.551C555.856 307.551 556.037 307.521 556.19 307.46C556.346 307.4 556.466 307.315 556.551 307.207C556.636 307.099 556.679 306.975 556.679 306.835C556.679 306.705 556.64 306.595 556.562 306.506C556.487 306.417 556.375 306.341 556.227 306.278C556.081 306.216 555.902 306.159 555.69 306.108L555.057 305.949C554.566 305.83 554.179 305.643 553.895 305.389C553.611 305.135 553.47 304.794 553.472 304.364C553.47 304.011 553.563 303.704 553.753 303.44C553.944 303.177 554.206 302.972 554.54 302.824C554.873 302.676 555.252 302.602 555.676 302.602C556.108 302.602 556.485 302.676 556.807 302.824C557.131 302.972 557.383 303.177 557.562 303.44C557.742 303.704 557.835 304.009 557.841 304.355H556.662ZM563.881 304.719H562.637C562.614 304.558 562.568 304.415 562.498 304.29C562.428 304.163 562.338 304.055 562.228 303.966C562.118 303.877 561.991 303.809 561.847 303.761C561.705 303.714 561.551 303.69 561.384 303.69C561.083 303.69 560.821 303.765 560.597 303.915C560.374 304.062 560.201 304.278 560.077 304.562C559.954 304.845 559.893 305.187 559.893 305.591C559.893 306.006 559.954 306.354 560.077 306.636C560.202 306.919 560.377 307.132 560.6 307.276C560.824 307.42 561.082 307.491 561.376 307.491C561.54 307.491 561.693 307.47 561.833 307.426C561.975 307.383 562.101 307.319 562.211 307.236C562.321 307.151 562.412 307.047 562.484 306.926C562.558 306.805 562.609 306.667 562.637 306.511L563.881 306.517C563.849 306.784 563.769 307.042 563.64 307.29C563.513 307.536 563.342 307.757 563.126 307.952C562.912 308.145 562.656 308.298 562.359 308.412C562.063 308.524 561.729 308.58 561.356 308.58C560.837 308.58 560.373 308.462 559.964 308.227C559.557 307.992 559.235 307.652 558.998 307.207C558.763 306.762 558.646 306.223 558.646 305.591C558.646 304.956 558.765 304.417 559.004 303.972C559.242 303.527 559.566 303.187 559.975 302.955C560.384 302.72 560.844 302.602 561.356 302.602C561.693 302.602 562.005 302.65 562.293 302.744C562.583 302.839 562.84 302.977 563.063 303.159C563.287 303.339 563.469 303.56 563.609 303.821C563.751 304.082 563.842 304.382 563.881 304.719ZM565.657 308.5H564.339L566.347 302.682H567.933L569.938 308.5H568.62L567.163 304.011H567.117L565.657 308.5ZM565.575 306.213H568.688V307.173H565.575V306.213ZM570.638 302.682H572.156L573.758 306.591H573.826L575.428 302.682H576.945V308.5H575.752V304.713H575.704L574.198 308.472H573.386L571.88 304.699H571.832V308.5H570.638V302.682Z" fill="white"/>
<rect x="707" y="429.5" width="69" height="14" rx="7" fill="#4B7497"/>
<path d="M715.568 439.5H713.506V433.682H715.585C716.17 433.682 716.674 433.798 717.097 434.031C717.519 434.262 717.844 434.595 718.071 435.028C718.3 435.462 718.415 435.981 718.415 436.585C718.415 437.191 718.3 437.712 718.071 438.148C717.844 438.583 717.517 438.918 717.091 439.151C716.667 439.384 716.159 439.5 715.568 439.5ZM714.736 438.446H715.517C715.881 438.446 716.187 438.382 716.435 438.253C716.685 438.122 716.872 437.92 716.997 437.648C717.124 437.373 717.188 437.019 717.188 436.585C717.188 436.155 717.124 435.804 716.997 435.531C716.872 435.259 716.686 435.058 716.438 434.929C716.189 434.8 715.884 434.736 715.52 434.736H714.736V438.446ZM720.556 433.682V439.5H719.326V433.682H720.556ZM721.568 439.5V433.682H723.864C724.303 433.682 724.678 433.76 724.989 433.918C725.301 434.073 725.539 434.294 725.702 434.58C725.866 434.864 725.949 435.198 725.949 435.582C725.949 435.969 725.866 436.301 725.699 436.58C725.532 436.856 725.291 437.068 724.974 437.216C724.66 437.364 724.279 437.438 723.832 437.438H722.295V436.449H723.634C723.868 436.449 724.063 436.417 724.219 436.352C724.374 436.288 724.49 436.191 724.565 436.062C724.643 435.934 724.682 435.774 724.682 435.582C724.682 435.389 724.643 435.226 724.565 435.094C724.49 434.961 724.373 434.861 724.216 434.793C724.061 434.723 723.865 434.688 723.628 434.688H722.798V439.5H721.568ZM724.71 436.852L726.156 439.5H724.798L723.384 436.852H724.71ZM726.597 434.696V433.682H731.375V434.696H729.594V439.5H728.378V434.696H726.597ZM731.821 433.682H733.199L734.526 436.188H734.582L735.909 433.682H737.287L735.165 437.443V439.5H733.943V437.443L731.821 433.682ZM739.81 433.682H741.327L742.93 437.591H742.998L744.6 433.682H746.117V439.5H744.924V435.713H744.876L743.37 439.472H742.558L741.052 435.699H741.004V439.5H739.81V433.682ZM752.477 436.591C752.477 437.225 752.357 437.765 752.116 438.21C751.878 438.655 751.552 438.995 751.139 439.23C750.728 439.463 750.266 439.58 749.753 439.58C749.236 439.58 748.772 439.462 748.361 439.227C747.95 438.992 747.625 438.652 747.386 438.207C747.148 437.762 747.028 437.223 747.028 436.591C747.028 435.956 747.148 435.417 747.386 434.972C747.625 434.527 747.95 434.187 748.361 433.955C748.772 433.72 749.236 433.602 749.753 433.602C750.266 433.602 750.728 433.72 751.139 433.955C751.552 434.187 751.878 434.527 752.116 434.972C752.357 435.417 752.477 435.956 752.477 436.591ZM751.23 436.591C751.23 436.18 751.169 435.833 751.045 435.551C750.924 435.269 750.753 435.055 750.531 434.909C750.31 434.763 750.05 434.69 749.753 434.69C749.455 434.69 749.196 434.763 748.974 434.909C748.753 435.055 748.58 435.269 748.457 435.551C748.336 435.833 748.276 436.18 748.276 436.591C748.276 437.002 748.336 437.348 748.457 437.631C748.58 437.913 748.753 438.127 748.974 438.273C749.196 438.419 749.455 438.491 749.753 438.491C750.05 438.491 750.31 438.419 750.531 438.273C750.753 438.127 750.924 437.913 751.045 437.631C751.169 437.348 751.23 437.002 751.23 436.591ZM758.255 433.682V439.5H757.192L754.661 435.838H754.619V439.5H753.388V433.682H754.468L756.979 437.341H757.031V433.682H758.255ZM759.271 439.5V433.682H763.192V434.696H760.501V436.082H762.99V437.097H760.501V438.486H763.203V439.5H759.271ZM763.829 433.682H765.207L766.533 436.188H766.59L767.917 433.682H769.295L767.173 437.443V439.5H765.951V437.443L763.829 433.682Z" fill="white"/>
<path opacity="0.7" d="M1712 437.5H2541M1713 426.5H1792.43C1803.04 426.5 1813.21 422.286 1820.72 414.784L1929.78 305.716C1937.29 298.214 1947.46 294 1958.07 294H2541" stroke="#4B7497"/>
<circle cx="1693" cy="432" r="20" stroke="#4B7497"/>
<path d="M1701 430V430C1702.1 430 1703 430.895 1703 432V432C1703 433.105 1702.1 434 1701 434V434M1701 430H1699C1697.9 430 1697 430.895 1697 432V432C1697 433.105 1697.9 434 1699 434H1701M1701 430V427C1701 425.895 1700.1 425 1699 425H1687C1685.9 425 1685 425.895 1685 427V437C1685 438.105 1685.9 439 1687 439H1699C1700.1 439 1701 438.105 1701 437V434" stroke="#4B7497"/>
<path d="M1866 434.5L1871 437.5L1866 440.5V434.5Z" fill="#4B7497"/>
<path d="M1724 423.5L1729 426.5L1724 429.5V423.5Z" fill="#4B7497"/>
<rect x="1892" y="430.5" width="46" height="14" rx="7" fill="#4B7497"/>
<path d="M1900.57 440.5H1898.51V434.682H1900.59C1901.17 434.682 1901.67 434.798 1902.1 435.031C1902.52 435.262 1902.84 435.595 1903.07 436.028C1903.3 436.462 1903.41 436.981 1903.41 437.585C1903.41 438.191 1903.3 438.712 1903.07 439.148C1902.84 439.583 1902.52 439.918 1902.09 440.151C1901.67 440.384 1901.16 440.5 1900.57 440.5ZM1899.74 439.446H1900.52C1900.88 439.446 1901.19 439.382 1901.43 439.253C1901.68 439.122 1901.87 438.92 1902 438.648C1902.12 438.373 1902.19 438.019 1902.19 437.585C1902.19 437.155 1902.12 436.804 1902 436.531C1901.87 436.259 1901.69 436.058 1901.44 435.929C1901.19 435.8 1900.88 435.736 1900.52 435.736H1899.74V439.446ZM1905 440.5H1903.68L1905.69 434.682H1907.28L1909.28 440.5H1907.96L1906.51 436.011H1906.46L1905 440.5ZM1904.92 438.213H1908.03V439.173H1904.92V438.213ZM1914.85 434.682V440.5H1913.79L1911.25 436.838H1911.21V440.5H1909.98V434.682H1911.06L1913.57 438.341H1913.62V434.682H1914.85ZM1919.72 436.562C1919.68 436.424 1919.63 436.302 1919.56 436.196C1919.48 436.088 1919.4 435.997 1919.29 435.923C1919.19 435.848 1919.07 435.79 1918.94 435.75C1918.81 435.71 1918.66 435.69 1918.5 435.69C1918.21 435.69 1917.95 435.764 1917.72 435.912C1917.5 436.06 1917.32 436.275 1917.2 436.557C1917.07 436.837 1917.01 437.18 1917.01 437.585C1917.01 437.991 1917.07 438.335 1917.19 438.619C1917.32 438.903 1917.49 439.12 1917.72 439.27C1917.94 439.418 1918.21 439.491 1918.52 439.491C1918.79 439.491 1919.03 439.442 1919.23 439.344C1919.43 439.243 1919.58 439.102 1919.68 438.92C1919.79 438.739 1919.84 438.524 1919.84 438.276L1920.09 438.312H1918.59V437.386H1921.03V438.119C1921.03 438.631 1920.92 439.07 1920.7 439.438C1920.49 439.803 1920.19 440.085 1919.81 440.284C1919.43 440.481 1919 440.58 1918.51 440.58C1917.96 440.58 1917.49 440.459 1917.07 440.219C1916.66 439.976 1916.34 439.633 1916.11 439.188C1915.88 438.741 1915.76 438.21 1915.76 437.597C1915.76 437.125 1915.83 436.705 1915.97 436.335C1916.11 435.964 1916.3 435.65 1916.55 435.392C1916.79 435.134 1917.08 434.938 1917.41 434.804C1917.74 434.67 1918.1 434.602 1918.48 434.602C1918.81 434.602 1919.12 434.651 1919.4 434.747C1919.69 434.842 1919.94 434.976 1920.16 435.151C1920.38 435.325 1920.56 435.532 1920.7 435.773C1920.84 436.011 1920.93 436.275 1920.97 436.562H1919.72ZM1921.95 440.5V434.682H1925.87V435.696H1923.18V437.082H1925.67V438.097H1923.18V439.486H1925.88V440.5H1921.95ZM1926.85 440.5V434.682H1929.14C1929.58 434.682 1929.96 434.76 1930.27 434.918C1930.58 435.073 1930.82 435.294 1930.98 435.58C1931.15 435.864 1931.23 436.198 1931.23 436.582C1931.23 436.969 1931.15 437.301 1930.98 437.58C1930.81 437.856 1930.57 438.068 1930.26 438.216C1929.94 438.364 1929.56 438.438 1929.11 438.438H1927.58V437.449H1928.91C1929.15 437.449 1929.34 437.417 1929.5 437.352C1929.66 437.288 1929.77 437.191 1929.85 437.062C1929.92 436.934 1929.96 436.774 1929.96 436.582C1929.96 436.389 1929.92 436.226 1929.85 436.094C1929.77 435.961 1929.65 435.861 1929.5 435.793C1929.34 435.723 1929.15 435.688 1928.91 435.688H1928.08V440.5H1926.85ZM1929.99 437.852L1931.44 440.5H1930.08L1928.66 437.852H1929.99Z" fill="white"/>
</g>
<defs>
<linearGradient id="paint0_linear_252_613" x1="1271" y1="0" x2="1271" y2="1011" gradientUnits="userSpaceOnUse">
<stop stop-color="#DCF1FE"/>
<stop offset="1" stop-color="white" stop-opacity="0"/>
</linearGradient>
<radialGradient id="paint1_radial_252_613" cx="0" cy="0" r="1" gradientUnits="userSpaceOnUse" gradientTransform="translate(2489.93 -259) rotate(113.386) scale(881.404 1985.91)">
<stop stop-color="#6139FF"/>
<stop offset="1" stop-color="#F364FF" stop-opacity="0"/>
</radialGradient>
<radialGradient id="paint2_radial_252_613" cx="0" cy="0" r="1" gradientUnits="userSpaceOnUse" gradientTransform="translate(0.999999 430.5) rotate(16.0048) scale(681.859 540.409)">
<stop stop-color="#0057FF"/>
<stop offset="1" stop-color="#B0E3FF" stop-opacity="0"/>
</radialGradient>
</defs>
</svg>
