<svg width="1512" height="881" viewBox="0 0 1512 881" fill="none" xmlns="http://www.w3.org/2000/svg">
<rect x="9.02661" y="0.100586" width="1492" height="880" rx="40" fill="#1F2C37"/>
<rect x="9.02661" y="0.100586" width="1492" height="880" rx="40" fill="#00147C" fill-opacity="0.3"/>
<g opacity="0.2">
<mask id="mask0_85_8080" style="mask-type:alpha" maskUnits="userSpaceOnUse" x="9" y="0" width="1493" height="881">
<rect x="9.02661" y="0.100586" width="1492" height="880" rx="40" fill="#00108E"/>
</mask>
<g mask="url(#mask0_85_8080)">
<g filter="url(#filter0_f_85_8080)">
<path d="M1725.92 860.299C1724.24 779.839 1712.65 705.471 1700.85 630.625C1687.91 548.565 1674.35 466.228 1657.38 388.347C1648.55 347.803 1638.75 301.772 1625.05 269.029C1611.14 235.771 1591.69 241.487 1578.43 272.11C1565.48 301.983 1557.65 343.089 1549.61 380.785C1536.25 443.394 1524.82 507.841 1512.94 572.086C1506.14 608.86 1484.79 768.238 1459.17 767.309C1442.88 766.72 1424.73 725.486 1412.77 703.449C1397.06 674.492 1381.8 640.239 1363.92 618.862C1354.7 607.843 1341.31 600.404 1331.12 607.938C1315.75 619.3 1307.46 685.109 1301.83 714.092C1287.77 786.519 1274.2 858.691 1258.02 928.642C1249.1 967.174 1239.85 1019.81 1225.8 1050.48C1207.29 1090.89 1182.31 1070.55 1160.31 1064.77C1128.6 1056.42 1099.28 1054.16 1069.05 1081.57C1060.97 1088.9 1053.27 1097.01 1044.8 1101.74C1028.55 1110.81 1017.52 1088.24 1002.16 1076.25C945.834 1032.29 886.648 1023.95 829.831 986.9C811.039 974.647 802.62 938.045 794.569 898.392C790.634 879.012 788.22 858.605 785.591 838.386C786.556 839.315 787.485 839.924 788.36 840.133C791.527 840.89 784.589 827.534 783.674 820.247C782.968 814.621 779.653 799.123 780.277 802.601C782.372 814.289 784.02 826.304 785.591 838.386C778.327 831.398 768.967 806.314 764.227 797.279C733.654 739 699.737 687.518 666.055 640.148C636.705 598.871 601.829 637.07 579.012 687.204C555.369 739.152 534.077 801.013 516.922 865.901C511.661 885.802 505.049 932.879 494.897 942.646C486.327 950.893 472.302 889.727 469.358 881.026C451.544 828.375 432.881 776.458 409.612 737.06C386.846 698.514 362.673 667.866 334.635 663.676C331.082 663.145 332.058 655.124 332.058 648.551C332.058 637.083 330.727 643.129 328.309 637.348C324.07 627.212 316.576 1124.65 316.576 1111.82C316.576 1101.29 315.727 1091.34 313.999 1081.57C313.042 1076.16 306.593 1064.69 306.033 1075.41C305.594 1083.8 299.677 1080.45 297.129 1080.45C286.02 1080.45 284.122 1060.35 276.745 1040.68C250.838 971.573 231.756 370.364 197.803 323.086C184.472 304.523 163.962 780.536 148.276 797.279C122.404 824.894 95.3798 310.273 71.0459 344.933C68.4353 348.651 63.6323 360.198 60.5023 353.896C53.272 339.339 48.3419 318.693 41.4067 303.2C31.2318 280.468 18.9603 259.802 6.61292 244.381C-8.18469 225.899 -21.3196 220.804 -35.7958 239.899C-47.246 255.003 -53.0332 244.713 -63.6777 229.816C-68.11 223.613 -72.4705 218.092 -76.8334 213.414C-91.9346 189.097 -110.107 175.338 -127.642 162.874C-135.583 157.23 -135.703 165.402 -137.131 182.481C-140.205 219.229 -134.752 206.567 -122.605 200.406C-105.569 191.767 -91.189 198.024 -76.8334 213.414C-68.9849 226.053 -61.9659 241.543 -56.297 261.186C-44.264 302.881 -45.4021 350.02 -45.4021 398.43C-45.4021 453.697 -45.5413 508.589 -47.5109 563.684C-49.9758 632.638 -51.271 702.371 -43.9963 770.11C-18.1613 1010.68 -141.048 1160.56 -47.5109 1160.56C-34.9911 1160.56 225.837 1126.6 238.337 1128.63C324.355 1142.57 411.101 1127.24 497.006 1116.3C598.082 1103.43 697.942 1076.61 798.787 1099.22C854.56 1111.72 909.989 1089.12 965.726 1092.49C1007.63 1095.03 1046.76 1135.06 1086.74 1160.56C1132.97 1190.03 1181.4 1214.95 1229.2 1222.18C1291.17 1231.54 1354.47 1256.6 1416.64 1241.22C1474.78 1226.84 1517.98 1153.43 1563.78 1073.73C1592.33 1024.03 1620.41 987.102 1653.28 957.211C1670.07 941.949 1687 910.978 1704.36 901.753C1719.63 893.641 1728.03 896.966 1728.03 855.258L1725.92 860.299Z" fill="url(#paint0_linear_85_8080)"/>
</g>
</g>
</g>
<g opacity="0.15">
<path d="M-180.973 261.6H-47.251C-36.8148 261.6 -26.7918 265.679 -19.321 272.966L79.3742 369.234C86.845 376.522 96.868 380.6 107.304 380.6H171.027M-180.973 434.6H-47.5419C-36.9333 434.6 -26.7591 430.386 -19.2577 422.885L0.310878 403.316C7.81233 395.815 17.9865 391.6 28.5952 391.6H171.027M1339.03 205.6H1341.03H1391.91C1402.25 205.6 1412.19 201.596 1419.64 194.427L1514.53 103.145M1579.03 569.6L1470.73 487.697C1463.79 482.443 1455.31 479.6 1446.6 479.6H1341.03M1529.03 426.1H1431.1C1420.49 426.1 1410.31 430.315 1402.81 437.816L1383.74 456.885C1376.24 464.386 1366.07 468.6 1355.46 468.6H1341.03M1519.53 300.1L1479.74 301.047C1469.94 301.28 1460.57 305.102 1453.4 311.787L1382.05 378.349C1374.65 385.258 1364.89 389.1 1354.77 389.1H1341.03M-31.9734 720.6L113.311 575.316C120.812 567.815 130.986 563.6 141.595 563.6H171.027" stroke="white"/>
<path d="M128.027 377.601L133.027 380.601L128.027 383.601V377.601Z" fill="white"/>
<path d="M1489.03 373.101L1494.03 376.101L1489.03 379.101V373.101Z" fill="white"/>
<path d="M68.0266 388.601L73.0266 391.601L68.0266 394.601V388.601Z" fill="white"/>
<path d="M1388.03 476.601L1393.03 479.601L1388.03 482.601V476.601Z" fill="white"/>
<path d="M148.027 560.601L153.027 563.601L148.027 566.601V560.601Z" fill="white"/>
</g>
<defs>
<filter id="filter0_f_85_8080" x="-261.973" y="37.1006" width="2114" height="1333" filterUnits="userSpaceOnUse" color-interpolation-filters="sRGB">
<feFlood flood-opacity="0" result="BackgroundImageFix"/>
<feBlend mode="normal" in="SourceGraphic" in2="BackgroundImageFix" result="shape"/>
<feGaussianBlur stdDeviation="62" result="effect1_foregroundBlur_85_8080"/>
</filter>
<linearGradient id="paint0_linear_85_8080" x1="795.027" y1="161.101" x2="116.304" y2="772.142" gradientUnits="userSpaceOnUse">
<stop stop-color="#FF5E72"/>
<stop offset="1" stop-color="#20BF55"/>
</linearGradient>
</defs>
</svg>
