
<svg width="2500px" height="573px" viewBox="0 0 2500 573" version="1.1" xmlns="http://www.w3.org/2000/svg" xmlns:xlink="http://www.w3.org/1999/xlink">
    <g id="Page-1" stroke="none" stroke-width="1" fill="none" fill-rule="evenodd">
        <g id="gateio" transform="translate(0.000000, 0.200000)" fill="#8A96A9">
            <path d="M2069.7,170.2 L2140.7,170.2 L2140.7,99.2 L2069.7,99.2 L2069.7,170.2 Z M1781.3,160.8 C1870.4,160.8 1942.5,233 1942.5,322 C1942.5,330.3 1941.9,338.5 1940.7,346.5 L1873.3,346.5 L1873.3,346.4 L1689.3,346.4 C1700.1,387.2 1737.2,417.2 1781.3,417.2 C1816.2,417.2 1846.7,398.4 1863.3,370.3 L1922.8,399.2 C1895.5,449.2 1842.4,483.2 1781.3,483.2 C1692.3,483.2 1620.1,411 1620.1,322 C1620.1,233 1692.3,160.8 1781.3,160.8 Z M1781.3,226.9 C1740.6,226.9 1705.9,252.5 1692.3,288.5 L1870.3,288.5 C1856.8,252.5 1822,226.9 1781.3,226.9 Z M1961.3,474.6 L2032.3,474.6 L2032.3,403.6 L1961.3,403.6 L1961.3,474.6 L1961.3,474.6 Z M2069.7,474.6 L2140.7,474.6 L2140.7,201.4 L2069.7,201.4 L2069.7,474.6 Z M2338.8,160.8 C2427.8,160.8 2500,233 2500,322 C2500,411 2427.8,483.2 2338.8,483.2 C2249.8,483.2 2177.6,411 2177.6,322 C2177.6,233 2249.8,160.8 2338.8,160.8 Z M2338.8,226.8 C2286.2,226.8 2243.6,269.4 2243.6,322 C2243.6,374.6 2286.2,417.2 2338.8,417.2 C2391.4,417.2 2434,374.6 2434,322 C2434,269.4 2391.4,226.8 2338.8,226.8 Z M854.4,262.6 L854.4,336 L953.7,336 C948.5,357 938.3,375.8 923.6,390.8 C901.4,413.5 870.7,425.9 837.1,425.9 C767.3,425.9 710.5,369.1 710.5,299.2 C710.5,229.4 767.3,172.5 837.1,172.5 C874.5,172.5 908.9,188.5 932.7,216.1 L989.5,169.6 C951.8,125.4 895.9,99 837.1,99 C726.8,99 637.1,188.8 637.1,299.1 C637.1,409.4 726.8,499.2 837.1,499.2 C890.7,499.2 940,479.9 976.1,443 C1006.4,412 1026.5,368.8 1030.3,325.6 C1032.2,304.5 1032.4,283.5 1031.2,262.4 L854.4,262.6 L854.4,262.6 Z M1216,161.1 C1251.6,161.1 1284.5,172.6 1311.2,192.2 L1311.2,169.9 L1377.2,169.9 L1377.2,474.7 L1311.2,474.7 L1311.2,452.4 C1284.5,471.9 1251.6,483.5 1216,483.5 C1127.1,483.5 1054.9,411.3 1054.9,322.3 C1054.9,233.3 1127,161.1 1216,161.1 Z M1216,226.8 C1163.4,226.8 1120.8,269.4 1120.8,322 C1120.8,374.6 1163.5,417.2 1216,417.2 C1268.6,417.2 1311.2,374.6 1311.2,322 C1311.2,269.4 1268.6,226.8 1216,226.8 Z M1518.8,99.2 L1452.8,99.2 L1452.8,170.2 L1413.3,170.2 L1413.3,232.5 L1452.8,232.5 L1452.8,395.5 C1452.8,412.3 1454.9,426.5 1459.1,437.6 C1463.2,448.6 1469.6,457.2 1477.1,463.9 C1484.7,470.7 1493.6,476 1504.2,479.1 C1515,482.1 1526.8,483.3 1539.4,483.3 C1552.4,483.3 1564,482 1573.8,479.3 C1583,476.8 1591.8,473.3 1599.9,468.9 L1599.9,418.7 C1586.9,424.3 1574.7,426.4 1560.8,427 C1546.1,427.7 1537.5,423.5 1530.3,416.6 C1522.7,409.4 1518.7,400 1518.7,384.3 L1518.7,232.5 L1599.9,232.5 L1599.9,170.2 L1518.7,170.2 L1518.7,99.2 L1518.8,99.2 Z" id="Fill-1" fill-rule="nonzero"></path>
            <path d="M286.2,443.7 C199.3,443.7 128.8,373.2 128.8,286.3 C128.8,199.4 199.3,128.9 286.2,128.9 L286.2,0 C128.1,0 0,128.2 0,286.3 C0,444.4 128.1,572.5 286.2,572.5 C444.2,572.5 572.4,444.3 572.4,286.3 L443.6,286.3 C443.6,373.3 373.1,443.7 286.2,443.7 L286.2,443.7 Z" id="Fill-3"></path>
            <polygon id="Fill-4" points="286.2 286.3 443.6 286.3 443.6 128.9 286.2 128.9"></polygon>
        </g>
    </g>
</svg>