<svg width="59" height="13" viewBox="0 0 59 13" fill="none" xmlns="http://www.w3.org/2000/svg"><path d="M13.1679 12.9353L7.44475 6.30135L12.9353 0H8.70105L3.72237 5.61763V0H0V12.9353H3.72237V6.94812L8.9337 12.9353H13.1679Z" fill="#8A96A9"></path><path d="M20.0241 13C23.6069 13 26.3056 11.3369 26.3056 8.56503V0H22.5833V8.30633C22.5833 9.28571 22.0016 10.1173 20.0241 10.1173C18.0466 10.1173 17.465 9.28571 17.465 8.30633V0H13.7426V8.56503C13.7426 11.3369 16.4413 13 20.0241 13Z" fill="#8A96A9"></path><path d="M38.0635 0V7.02203L31.782 0H28.9902V12.9353H32.7125V5.91329L38.9941 12.9353H41.7858V0H38.0635Z" fill="#8A96A9"></path><path d="M54.9287 12.9353H59L53.463 0H48.7169L43.1799 12.9353H47.2513L48.0655 10.9026H54.1144L54.9287 12.9353ZM49.1822 8.13077L51.09 3.38166L52.9977 8.13077H49.1822Z" fill="#8A96A9"></path></svg>