<svg width="1918" height="507" viewBox="0 0 1918 507" fill="none" xmlns="http://www.w3.org/2000/svg">
<g filter="url(#filter0_d_1_8)">
<path d="M277.512 60.3269C282.073 65.6252 286.869 70.3344 290.598 75.7691C310.559 104.854 330.205 134.153 350.057 163.312C361.865 180.657 373.884 197.86 385.743 215.171C391.114 223.012 397.046 230.479 398.971 240.257C401.327 252.228 399.75 263.369 393.068 273.552C373.273 303.721 353.285 333.765 333.457 363.913C318.813 386.18 304.432 408.62 289.677 430.814C282.072 442.254 271.071 447.881 257.221 448.868C236.122 450.37 223.259 438.914 212.931 422.597C203.373 407.497 193.529 392.574 183.729 377.628C163.498 346.774 143.141 316.003 123.002 285.09C118.497 278.176 113.646 271.205 110.772 263.581C105.924 250.723 107.534 237.732 114.83 225.992C132.927 196.875 151.351 167.96 169.577 138.922C183.997 115.948 198.114 92.7821 212.764 69.9545C220.954 57.1929 232.772 50.2173 248.436 50.0064C259.407 49.8588 269.229 52.2223 277.512 60.3269ZM319.254 195.576C312.117 185.027 304.98 174.478 297.194 162.97C294.627 196.448 281.812 224.044 259.494 246.961C237.027 270.034 209.05 282.626 176.484 286.561C202.529 326.346 228.229 365.605 254.361 405.524C257.271 400.923 259.816 396.787 262.47 392.722C277.391 369.864 292.303 346.999 307.289 324.183C322.725 300.68 338.212 277.21 353.764 253.783C355.709 250.853 355.806 248.708 353.641 245.614C342.177 229.23 331.025 212.631 319.254 195.576Z" fill="#0057FF"/>
<path d="M503.57 357H454.138L529.457 138.818H588.903L664.117 357H614.685L560.033 188.676H558.328L503.57 357ZM500.48 271.24H617.242V307.249H500.48V271.24Z" fill="black"/>
<path d="M690.377 138.818H747.266L807.352 285.409H809.908L869.994 138.818H926.883V357H882.138V214.99H880.327L823.864 355.935H793.396L736.933 214.457H735.121V357H690.377V138.818Z" fill="black"/>
<path d="M964.889 357V138.818H1011.02V318.967H1104.56V357H964.889Z" fill="black"/>
<path d="M1099.55 176.851V138.818H1278.74V176.851H1211.94V357H1166.34V176.851H1099.55Z" fill="black"/>
<path d="M1290.4 357V193.364H1334.4V221.915H1336.11C1339.09 211.759 1344.1 204.088 1351.13 198.903C1358.16 193.648 1366.26 191.02 1375.42 191.02C1377.69 191.02 1380.14 191.162 1382.77 191.446C1385.4 191.73 1387.7 192.121 1389.69 192.618V232.888C1387.56 232.249 1384.62 231.68 1380.85 231.183C1377.09 230.686 1373.64 230.438 1370.52 230.438C1363.84 230.438 1357.88 231.893 1352.62 234.805C1347.43 237.646 1343.32 241.624 1340.26 246.737C1337.28 251.851 1335.79 257.746 1335.79 264.422V357H1290.4Z" fill="black"/>
<path d="M1455.13 360.089C1444.69 360.089 1435.39 358.278 1427.22 354.656C1419.05 350.963 1412.59 345.53 1407.83 338.357C1403.14 331.112 1400.8 322.092 1400.8 311.297C1400.8 302.206 1402.47 294.571 1405.81 288.392C1409.14 282.213 1413.69 277.241 1419.44 273.477C1425.2 269.713 1431.73 266.872 1439.05 264.955C1446.43 263.037 1454.17 261.688 1462.27 260.906C1471.79 259.912 1479.46 258.989 1485.28 258.136C1491.11 257.213 1495.33 255.864 1497.96 254.088C1500.59 252.312 1501.9 249.685 1501.9 246.205V245.565C1501.9 238.818 1499.77 233.598 1495.51 229.905C1491.32 226.212 1485.35 224.365 1477.61 224.365C1469.44 224.365 1462.94 226.176 1458.12 229.798C1453.29 233.349 1450.09 237.824 1448.53 243.222L1406.55 239.812C1408.68 229.869 1412.87 221.276 1419.12 214.031C1425.37 206.716 1433.43 201.105 1443.31 197.199C1453.25 193.222 1464.76 191.233 1477.82 191.233C1486.91 191.233 1495.62 192.298 1503.92 194.429C1512.31 196.56 1519.73 199.862 1526.19 204.337C1532.72 208.811 1537.87 214.564 1541.64 221.595C1545.4 228.555 1547.28 236.901 1547.28 246.631V357H1504.24V334.308H1502.97C1500.34 339.422 1496.82 343.932 1492.42 347.838C1488.02 351.673 1482.72 354.692 1476.55 356.893C1470.37 359.024 1463.23 360.089 1455.13 360.089ZM1468.13 328.768C1474.81 328.768 1480.7 327.455 1485.81 324.827C1490.93 322.128 1494.94 318.506 1497.85 313.96C1500.76 309.415 1502.22 304.266 1502.22 298.513V281.148C1500.8 282.071 1498.85 282.923 1496.36 283.705C1493.95 284.415 1491.21 285.089 1488.16 285.729C1485.1 286.297 1482.05 286.83 1479 287.327C1475.94 287.753 1473.17 288.143 1470.69 288.499C1465.36 289.28 1460.71 290.523 1456.73 292.227C1452.75 293.932 1449.66 296.24 1447.46 299.152C1445.26 301.993 1444.16 305.544 1444.16 309.805C1444.16 315.984 1446.4 320.707 1450.87 323.974C1455.42 327.17 1461.17 328.768 1468.13 328.768Z" fill="black"/>
<path d="M1656.43 360.196C1639.67 360.196 1625.25 356.645 1613.18 349.543C1601.17 342.369 1591.94 332.426 1585.48 319.713C1579.08 307 1575.89 292.369 1575.89 275.821C1575.89 259.06 1579.12 244.358 1585.58 231.716C1592.12 219.003 1601.39 209.095 1613.39 201.993C1625.39 194.82 1639.67 191.233 1656.22 191.233C1670.49 191.233 1682.99 193.825 1693.72 199.01C1704.44 204.195 1712.93 211.474 1719.18 220.849C1725.43 230.224 1728.87 241.233 1729.51 253.875H1686.68C1685.48 245.707 1682.28 239.138 1677.1 234.166C1671.98 229.124 1665.27 226.602 1656.96 226.602C1649.93 226.602 1643.79 228.52 1638.53 232.355C1633.35 236.119 1629.3 241.624 1626.39 248.868C1623.47 256.112 1622.02 264.884 1622.02 275.182C1622.02 285.622 1623.44 294.5 1626.28 301.815C1629.19 309.131 1633.27 314.706 1638.53 318.541C1643.79 322.376 1649.93 324.294 1656.96 324.294C1662.15 324.294 1666.8 323.229 1670.92 321.098C1675.11 318.967 1678.55 315.878 1681.25 311.83C1684.02 307.71 1685.83 302.774 1686.68 297.021H1729.51C1728.8 309.521 1725.39 320.53 1719.28 330.047C1713.25 339.493 1704.9 346.879 1694.25 352.206C1683.59 357.533 1670.99 360.196 1656.43 360.196Z" fill="black"/>
<path d="M1799.69 309.912L1799.8 255.473H1806.4L1858.82 193.364H1910.91L1840.49 275.608H1829.73L1799.69 309.912ZM1758.57 357V138.818H1803.95V357H1758.57ZM1860.84 357L1812.69 285.729L1842.94 253.662L1914 357H1860.84Z" fill="black"/>
</g>
<defs>
<filter id="filter0_d_1_8" x="0" y="0" width="1918" height="507" filterUnits="userSpaceOnUse" color-interpolation-filters="sRGB">
<feFlood flood-opacity="0" result="BackgroundImageFix"/>
<feColorMatrix in="SourceAlpha" type="matrix" values="0 0 0 0 0 0 0 0 0 0 0 0 0 0 0 0 0 0 127 0" result="hardAlpha"/>
<feOffset dy="4"/>
<feGaussianBlur stdDeviation="2"/>
<feComposite in2="hardAlpha" operator="out"/>
<feColorMatrix type="matrix" values="0 0 0 0 0 0 0 0 0 0 0 0 0 0 0 0 0 0 0.25 0"/>
<feBlend mode="normal" in2="BackgroundImageFix" result="effect1_dropShadow_1_8"/>
<feBlend mode="normal" in="SourceGraphic" in2="effect1_dropShadow_1_8" result="shape"/>
</filter>
</defs>
</svg>
